<svg width="66" height="66" viewBox="0 0 66 66" fill="none" xmlns="http://www.w3.org/2000/svg">
<rect x="5" y="5" width="56" height="56" rx="28" fill="#D1FADF"/>
<rect x="5" y="5" width="56" height="56" rx="28" stroke="#ECFDF3" stroke-width="10"/>
<path d="M36.1496 26.35C35.9358 26.5681 35.8161 26.8613 35.8161 27.1667C35.8161 27.4721 35.9358 27.7653 36.1496 27.9834L38.0163 29.85C38.2343 30.0638 38.5275 30.1835 38.8329 30.1835C39.1383 30.1835 39.4315 30.0638 39.6496 29.85L44.0479 25.4517C44.6346 26.7481 44.8122 28.1925 44.5571 29.5924C44.3021 30.9922 43.6264 32.2812 42.6202 33.2873C41.6141 34.2935 40.3252 34.9692 38.9253 35.2242C37.5254 35.4793 36.081 35.3017 34.7846 34.715L26.7229 42.7767C26.2588 43.2408 25.6293 43.5016 24.9729 43.5016C24.3165 43.5016 23.687 43.2408 23.2229 42.7767C22.7588 42.3126 22.498 41.6831 22.498 41.0267C22.498 40.3703 22.7588 39.7408 23.2229 39.2767L31.2846 31.215C30.6979 29.9186 30.5203 28.4742 30.7754 27.0743C31.0305 25.6745 31.7061 24.3855 32.7123 23.3794C33.7184 22.3732 35.0074 21.6975 36.4072 21.4425C37.8071 21.1874 39.2515 21.365 40.5479 21.9517L36.1613 26.3384L36.1496 26.35Z" stroke="#12B76A" stroke-width="2" stroke-linecap="round" stroke-linejoin="round"/>
</svg>
